<svg id="Layer_1" data-name="Layer 1" xmlns="http://www.w3.org/2000/svg" viewBox="0 0 12 12"><defs><style>.cls-1{fill:red;}</style></defs><g id="Logo"><path id="circle" class="cls-1" d="M5.85,0A6.08,6.08,0,1,0,6,0Zm0,1H6a4.89,4.89,0,1,1-.16,0Z" transform="translate(0 0)"/><path id="dollar-s" class="cls-1" d="M4.81,7.26a1.89,1.89,0,0,0,2,.35c.15-.08.18-.32.18-.49a.4.4,0,0,0-.08-.27,1.16,1.16,0,0,0-.41-.27,5.45,5.45,0,0,1-1.85-.77,1,1,0,0,1-.37-.93A1.53,1.53,0,0,1,4.7,3.71a1.91,1.91,0,0,1,1.36-.43,2.43,2.43,0,0,1,1.75.61l-.65.7a1.44,1.44,0,0,0-1.08-.33.91.91,0,0,0-.55.12.36.36,0,0,0-.18.31A.33.33,0,0,0,5.51,5a4.41,4.41,0,0,0,1,.35A2.74,2.74,0,0,1,7.78,6a1.46,1.46,0,0,1,.34,1,1.6,1.6,0,0,1-.53,1.23,2,2,0,0,1-1.39.58A2.77,2.77,0,0,1,4.06,8" transform="translate(0 0)"/><path id="diagonal" class="cls-1" d="M1.16,7.58l.46,1L11.38,4.2l-.46-1Z" transform="translate(0 0)"/><path id="dollar-ticks" class="cls-1" d="M5.7,2.41V3.7h.6V2.41Zm0,6V9.59h.6V8.43Z" transform="translate(0 0)"/></g></svg>